<?xml version="1.0" encoding="UTF-8" standalone="no" ?>
<!DOCTYPE svg PUBLIC "-//W3C//DTD SVG 1.1//EN" "http://www.w3.org/Graphics/SVG/1.1/DTD/svg11.dtd">
<svg xmlns="http://www.w3.org/2000/svg" xmlns:xlink="http://www.w3.org/1999/xlink" version="1.1" width="1280" height="1024" viewBox="0 0 1280 1024" xml:space="preserve">
<desc>Created with Fabric.js 5.3.0</desc>
<defs>
</defs>
<g transform="matrix(1 0 0 1 640 512)" id="background-logo"  >
<rect style="stroke: none; stroke-width: 0; stroke-dasharray: none; stroke-linecap: butt; stroke-dashoffset: 0; stroke-linejoin: miter; stroke-miterlimit: 4; fill: rgb(255,255,255); fill-opacity: 0; fill-rule: nonzero; opacity: 1;"  paint-order="stroke"  x="-640" y="-512" rx="0" ry="0" width="1280" height="1024" />
</g>
<g transform="matrix(1.9211538461538462 0 0 1.9211538461538462 640.8700538048377 458.4677275734714)" id="text-logo"  >
<g style=""  paint-order="stroke"   >
		<g transform="matrix(1 0 0 1 0 0)" id="text-logo-path-0"  >
<linearGradient id="SVGID_43101" gradientUnits="userSpaceOnUse" gradientTransform="matrix(1 0 0 1 2.6399999999999864 -30.59)"  x1="-2.6410310888290383" y1="-16.005552812499985" x2="-2.6410310888290383" y2="43.994447187500015">
<stop offset="0%" style="stop-color:rgb(245,81,95);stop-opacity: 1"/>
<stop offset="100%" style="stop-color:rgb(159,4,27);stop-opacity: 1"/>
</linearGradient>
<path style="stroke: rgb(255,255,255); stroke-width: 0; stroke-dasharray: none; stroke-linecap: butt; stroke-dashoffset: 0; stroke-linejoin: miter; stroke-miterlimit: 4; fill: url(#SVGID_43101); fill-rule: nonzero; opacity: 1;"  paint-order="stroke"  transform=" translate(-305.84, 14.945)" d="M 12.19 0 L 2.64 0 L 2.64 -30.2 Q 9.11 -30.38 14.83 -30.38 L 14.83 -30.38 Q 17.31 -30.38 19.2 -30.16 Q 21.09 -29.94 22.94 -29.28 Q 24.79 -28.62 25.98 -27.51 Q 27.17 -26.4 27.9 -24.52 Q 28.62 -22.64 28.62 -20.08 L 28.62 -20.08 Q 28.62 -17.31 27.46 -14.57 Q 26.29 -11.83 25.23 -11.08 L 25.23 -11.08 Q 24.27 -10.46 20.5 -10.14 L 20.5 -10.14 Q 18.37 -9.99 15.99 -9.96 L 15.99 -9.96 Q 14.16 -9.96 12.19 -10.07 L 12.19 -10.07 L 12.19 0 Z M 12.19 -24.27 L 12.19 -16.23 Q 12.94 -16.15 14.03 -16.15 L 14.03 -16.15 Q 14.91 -16.15 15.99 -16.2 L 15.99 -16.2 Q 18.48 -16.3 18.81 -16.74 L 18.81 -16.74 Q 19.36 -17.42 19.36 -19.51 L 19.36 -19.51 Q 19.36 -22.18 18.21 -23.3 Q 17.05 -24.43 14.26 -24.43 L 14.26 -24.43 Q 13.3 -24.43 12.19 -24.27 L 12.19 -24.27 Z M 60.03 0 L 50.48 0 L 50.48 -30.2 L 60.03 -30.2 L 60.03 0 Z M 90.87 0.05 L 81.06 0.05 L 88.75 -15.48 L 81.63 -30.2 L 91.39 -30.2 L 96.28 -18.35 L 101.3 -30.2 L 110.8 -30.2 L 103.78 -15.48 L 111.26 0.05 L 101.51 0.05 L 96.28 -12.78 L 90.87 0.05 Z M 139.36 0 L 129.6 0 L 139.36 -30.2 L 151.81 -30.2 L 161.15 0 L 151.34 0 L 149.74 -6.63 L 140.94 -6.63 L 139.36 0 Z M 145.29 -23.68 L 142.16 -12.5 L 148.47 -12.5 L 145.49 -23.68 L 145.29 -23.68 Z M 180.24 -14.73 L 180.24 -14.73 Q 180.24 -22.67 184.55 -26.63 Q 188.86 -30.59 196.62 -30.59 L 196.62 -30.59 Q 200.4 -30.59 204.36 -29.58 L 204.36 -29.58 Q 204.36 -28.54 204.14 -26.42 Q 203.92 -24.3 203.74 -23.47 L 203.74 -23.47 L 200.4 -23.47 Q 192.79 -23.47 192.12 -22.85 L 192.12 -22.85 Q 191.29 -22.1 190.89 -19.85 Q 190.49 -17.6 190.49 -15.53 L 190.49 -15.53 Q 190.49 -8.98 193.67 -7.43 L 193.67 -7.43 Q 195.07 -6.78 198.07 -6.78 L 198.07 -6.78 Q 200.25 -6.78 204.41 -7.22 L 204.41 -7.22 L 205.01 -1.01 Q 201.31 0.6 195.61 0.6 L 195.61 0.6 Q 192.09 0.6 189.31 -0.3 Q 186.53 -1.19 184.49 -3.01 Q 182.44 -4.84 181.34 -7.8 Q 180.24 -10.77 180.24 -14.73 Z M 225.86 -15.06 L 225.86 -15.06 Q 225.86 -18.43 226.67 -21.08 Q 227.49 -23.73 228.91 -25.5 Q 230.34 -27.28 232.37 -28.43 Q 234.4 -29.58 236.7 -30.08 Q 239.01 -30.59 241.72 -30.59 L 241.72 -30.59 Q 256.76 -30.59 256.76 -15.58 L 256.76 -15.58 Q 256.76 -11.9 255.9 -8.98 Q 255.05 -6.06 253.26 -3.86 Q 251.48 -1.66 248.55 -0.48 Q 245.63 0.7 241.67 0.7 L 241.67 0.7 Q 233.78 0.7 229.82 -3.04 Q 225.86 -6.78 225.86 -15.06 Z M 236.31 -14.96 L 236.31 -14.96 Q 236.31 -10.48 237.17 -8.44 L 237.17 -8.44 Q 238.25 -5.56 241.46 -5.56 L 241.46 -5.56 Q 242.94 -5.56 243.92 -6.07 Q 244.91 -6.57 245.53 -7.84 L 245.53 -7.84 Q 246.64 -9.96 246.64 -14.96 L 246.64 -14.96 Q 246.64 -19.82 245.53 -21.95 L 245.53 -21.95 Q 244.39 -24.2 241.46 -24.27 L 241.46 -24.27 Q 240.38 -24.27 239.16 -24.03 Q 237.94 -23.78 237.63 -23.37 L 237.63 -23.37 Q 237.01 -22.64 236.66 -20.24 Q 236.31 -17.83 236.31 -14.96 Z M 305.19 -0.75 L 305.19 -0.75 Q 305.27 -1.84 305.63 -4 Q 305.99 -6.16 306.3 -7.22 L 306.3 -7.22 Q 309.07 -6.83 313.7 -6.42 L 313.7 -6.42 Q 316.21 -6.21 317.53 -6.21 L 317.53 -6.21 Q 318.62 -6.21 318.85 -6.37 L 318.85 -6.37 Q 319.16 -6.57 319.36 -7.08 Q 319.55 -7.58 319.55 -7.94 L 319.55 -7.94 Q 319.55 -8.77 318.77 -9.37 Q 318 -9.96 316.76 -10.38 Q 315.51 -10.79 314.03 -11.23 Q 312.54 -11.67 311.04 -12.4 Q 309.54 -13.12 308.29 -14.14 Q 307.05 -15.17 306.27 -16.94 Q 305.5 -18.71 305.5 -21.04 Q 305.5 -23.37 306.57 -25.63 Q 307.65 -27.9 308.73 -28.67 L 308.73 -28.67 Q 309.56 -29.24 312.23 -29.77 Q 314.89 -30.3 317.22 -30.3 L 317.22 -30.3 Q 323.23 -30.3 326.93 -29.19 L 326.93 -29.19 Q 326.75 -26.84 325.97 -22.9 L 325.97 -22.9 Q 324.99 -22.95 322.93 -23.08 Q 320.87 -23.21 319.94 -23.27 L 319.94 -23.27 Q 319.01 -23.34 317.71 -23.39 L 317.71 -23.39 Q 316.65 -23.45 316.03 -23.45 L 316.03 -23.45 Q 315.9 -23.45 315.82 -23.45 L 315.82 -23.45 Q 315.23 -23.45 315.05 -23.37 L 315.05 -23.37 Q 314.5 -23.03 314.5 -22.05 L 314.5 -22.05 Q 314.5 -21.19 315.29 -20.57 Q 316.08 -19.95 317.33 -19.53 Q 318.57 -19.1 320.08 -18.65 Q 321.6 -18.19 323.12 -17.49 Q 324.65 -16.8 325.89 -15.81 Q 327.13 -14.83 327.92 -13.15 Q 328.71 -11.46 328.71 -9.26 L 328.71 -9.26 Q 328.71 0.6 315.9 0.6 L 315.9 0.6 Q 313.81 0.6 310.75 0.23 Q 307.7 -0.13 305.19 -0.75 Z M 357.2 -23.58 L 348.66 -23.58 L 348.66 -30.2 L 375.26 -30.2 L 375.26 -23.58 L 366.75 -23.58 L 366.75 0 L 357.2 0 L 357.2 -23.58 Z M 396.5 -11.18 L 396.5 -11.18 L 396.5 -30.2 L 406.05 -30.2 L 406.05 -13.2 Q 406.05 -11.52 406.13 -10.52 Q 406.2 -9.52 406.46 -8.54 Q 406.72 -7.56 407.25 -7.05 Q 407.78 -6.55 408.68 -6.24 Q 409.57 -5.93 410.91 -5.93 L 410.91 -5.93 Q 412.23 -5.93 413.41 -6.2 Q 414.59 -6.47 415 -6.99 L 415 -6.99 Q 415.47 -7.63 415.47 -11.62 L 415.47 -11.62 L 415.47 -30.2 L 425.02 -30.2 L 425.02 -13.3 Q 425.02 -10.69 424.79 -8.81 Q 424.55 -6.94 423.94 -5.31 Q 423.34 -3.67 422.3 -2.63 Q 421.27 -1.58 419.64 -0.82 Q 418 -0.05 415.77 0.27 Q 413.53 0.6 410.5 0.6 L 410.5 0.6 Q 407.94 0.6 405.98 0.32 Q 404.03 0.05 402.18 -0.71 Q 400.33 -1.48 399.14 -2.76 Q 397.95 -4.04 397.22 -6.16 Q 396.5 -8.28 396.5 -11.18 Z M 459.09 0 L 448.48 0 L 448.48 -30.2 L 459.09 -30.2 Q 461.65 -30.2 463.67 -30.05 Q 465.69 -29.89 467.66 -29.46 Q 469.63 -29.04 471.1 -28.32 Q 472.58 -27.61 473.84 -26.47 Q 475.11 -25.34 475.9 -23.8 Q 476.69 -22.26 477.14 -20.15 Q 477.6 -18.04 477.6 -15.37 L 477.6 -15.37 Q 477.6 -13.12 477.3 -11.24 Q 477 -9.37 476.47 -7.92 Q 475.94 -6.47 475.1 -5.32 Q 474.26 -4.17 473.3 -3.34 Q 472.34 -2.51 471.06 -1.92 Q 469.78 -1.32 468.51 -0.96 Q 467.24 -0.6 465.61 -0.38 Q 463.98 -0.16 462.47 -0.08 Q 460.96 0 459.09 0 L 459.09 0 Z M 458.03 -24.17 L 458.03 -6.57 Q 459.4 -6.44 460.8 -6.44 L 460.8 -6.44 Q 461.97 -6.42 463.13 -6.52 L 463.13 -6.52 Q 465.69 -6.73 466.18 -7.22 L 466.18 -7.22 Q 466.8 -7.84 467.08 -10.48 Q 467.35 -13.12 467.35 -15.37 L 467.35 -15.37 Q 467.35 -18.19 466.97 -19.84 Q 466.6 -21.48 465.56 -22.51 L 465.56 -22.51 Q 463.96 -24.27 460.1 -24.27 L 460.1 -24.27 Q 459.43 -24.27 458.03 -24.17 L 458.03 -24.17 Z M 509.86 0 L 500.31 0 L 500.31 -30.2 L 509.86 -30.2 L 509.86 0 Z M 532.57 -15.06 L 532.57 -15.06 Q 532.57 -18.43 533.39 -21.08 Q 534.2 -23.73 535.63 -25.5 Q 537.05 -27.28 539.08 -28.43 Q 541.11 -29.58 543.42 -30.08 Q 545.72 -30.59 548.44 -30.59 L 548.44 -30.59 Q 563.47 -30.59 563.47 -15.58 L 563.47 -15.58 Q 563.47 -11.9 562.62 -8.98 Q 561.77 -6.06 559.98 -3.86 Q 558.19 -1.66 555.27 -0.48 Q 552.35 0.7 548.39 0.7 L 548.39 0.7 Q 540.49 0.7 536.53 -3.04 Q 532.57 -6.78 532.57 -15.06 Z M 543.03 -14.96 L 543.03 -14.96 Q 543.03 -10.48 543.88 -8.44 L 543.88 -8.44 Q 544.97 -5.56 548.18 -5.56 L 548.18 -5.56 Q 549.65 -5.56 550.64 -6.07 Q 551.62 -6.57 552.24 -7.84 L 552.24 -7.84 Q 553.35 -9.96 553.35 -14.96 L 553.35 -14.96 Q 553.35 -19.82 552.24 -21.95 L 552.24 -21.95 Q 551.1 -24.2 548.18 -24.27 L 548.18 -24.27 Q 547.09 -24.27 545.88 -24.03 Q 544.66 -23.78 544.35 -23.37 L 544.35 -23.37 Q 543.73 -22.64 543.38 -20.24 Q 543.03 -17.83 543.03 -14.96 Z M 585.51 -0.75 L 585.51 -0.75 Q 585.59 -1.84 585.95 -4 Q 586.32 -6.16 586.63 -7.22 L 586.63 -7.22 Q 589.4 -6.83 594.03 -6.42 L 594.03 -6.42 Q 596.54 -6.21 597.86 -6.21 L 597.86 -6.21 Q 598.95 -6.21 599.18 -6.37 L 599.18 -6.37 Q 599.49 -6.57 599.68 -7.08 Q 599.88 -7.58 599.88 -7.94 L 599.88 -7.94 Q 599.88 -8.77 599.1 -9.37 Q 598.32 -9.96 597.08 -10.38 Q 595.84 -10.79 594.35 -11.23 Q 592.86 -11.67 591.36 -12.4 Q 589.86 -13.12 588.62 -14.14 Q 587.38 -15.17 586.6 -16.94 Q 585.82 -18.71 585.82 -21.04 Q 585.82 -23.37 586.9 -25.63 Q 587.97 -27.9 589.06 -28.67 L 589.06 -28.67 Q 589.89 -29.24 592.55 -29.77 Q 595.22 -30.3 597.55 -30.3 L 597.55 -30.3 Q 603.55 -30.3 607.25 -29.19 L 607.25 -29.19 Q 607.07 -26.84 606.29 -22.9 L 606.29 -22.9 Q 605.31 -22.95 603.25 -23.08 Q 601.2 -23.21 600.27 -23.27 L 600.27 -23.27 Q 599.33 -23.34 598.04 -23.39 L 598.04 -23.39 Q 596.98 -23.45 596.36 -23.45 L 596.36 -23.45 Q 596.23 -23.45 596.15 -23.45 L 596.15 -23.45 Q 595.56 -23.45 595.37 -23.37 L 595.37 -23.37 Q 594.83 -23.03 594.83 -22.05 L 594.83 -22.05 Q 594.83 -21.19 595.62 -20.57 Q 596.41 -19.95 597.65 -19.53 Q 598.89 -19.1 600.41 -18.65 Q 601.92 -18.19 603.45 -17.49 Q 604.98 -16.8 606.22 -15.81 Q 607.46 -14.83 608.25 -13.15 Q 609.04 -11.46 609.04 -9.26 L 609.04 -9.26 Q 609.04 0.6 596.23 0.6 L 596.23 0.6 Q 594.13 0.6 591.08 0.23 Q 588.02 -0.13 585.51 -0.75 Z" stroke-linecap="round" />
</g>
</g>
</g>
<g transform="matrix(1.9211538461538462 0 0 1.9211538461538462 639.105631591797 549.4543462412898)" id="tagline-ee21041c-fd7a-4646-a088-df0a2334375e-logo"  >
<g style=""  paint-order="stroke"   >
		<g transform="matrix(1 0 0 1 -5.684342e-14 0)" id="tagline-ee21041c-fd7a-4646-a088-df0a2334375e-logo-path-0"  >
<path style="stroke: none; stroke-width: 0; stroke-dasharray: none; stroke-linecap: butt; stroke-dashoffset: 0; stroke-linejoin: miter; stroke-miterlimit: 4; fill: rgb(165,166,165); fill-rule: nonzero; opacity: 1;"  paint-order="stroke"  transform=" translate(-248.845, 6.75)" d="M 4.36 0 L 4.76 -3.03 L 7.45 -13.51 L 8.86 -13.51 L 8.7 -10.81 L 5.83 0 L 4.36 0 Z M 0.44 -13.51 L 2.75 -13.51 L 4.93 -3.12 L 5.12 0 L 3.56 0 L 0.44 -13.51 Z M 11.7 0 L 11.91 -3.15 L 14.06 -13.51 L 16.38 -13.51 L 13.26 0 L 11.7 0 Z M 8.02 -13.51 L 9.41 -13.51 L 12.07 -3.01 L 12.46 0 L 10.99 0 L 8.16 -10.81 L 8.02 -13.51 Z M 26.33 -7.87 L 33.5 -7.87 L 33.5 -6.02 L 26.33 -6.02 L 26.33 -7.87 Z M 24.58 -13.51 L 26.91 -13.51 L 26.91 0 L 24.58 0 L 24.58 -13.51 Z M 32.98 -13.51 L 35.29 -13.51 L 35.29 0 L 32.98 0 L 32.98 -13.51 Z M 46.21 -1.85 L 53.38 -1.85 L 53.38 0 L 46.21 0 L 46.21 -1.85 Z M 44.54 -13.51 L 46.87 -13.51 L 46.87 0 L 44.54 0 L 44.54 -13.51 Z M 46.21 -7.87 L 52.44 -7.87 L 52.44 -6.05 L 46.21 -6.05 L 46.21 -7.87 Z M 46.21 -13.51 L 53.33 -13.51 L 53.33 -11.65 L 46.21 -11.65 L 46.21 -13.51 Z M 61.75 0 L 61.75 -13.51 L 66.53 -13.51 C 67.56 -13.51 68.43 -13.35 69.15 -13.04 C 69.88 -12.74 70.43 -12.28 70.82 -11.68 C 71.2 -11.08 71.4 -10.33 71.4 -9.44 L 71.4 -9.44 C 71.4 -8.77 71.28 -8.17 71.03 -7.66 C 70.78 -7.15 70.43 -6.72 69.98 -6.37 C 69.53 -6.02 68.99 -5.75 68.37 -5.56 L 68.37 -5.56 L 67.66 -5.21 L 63.37 -5.21 L 63.35 -7.06 L 66.57 -7.06 C 67.12 -7.06 67.59 -7.16 67.96 -7.36 C 68.33 -7.55 68.61 -7.83 68.8 -8.17 C 68.99 -8.52 69.08 -8.9 69.08 -9.33 L 69.08 -9.33 C 69.08 -9.81 68.99 -10.21 68.81 -10.57 C 68.63 -10.91 68.35 -11.18 67.97 -11.37 C 67.59 -11.56 67.11 -11.65 66.53 -11.65 L 66.53 -11.65 L 64.08 -11.65 L 64.08 0 L 61.75 0 Z M 71.95 0 L 69.46 0 L 66.29 -6.07 L 68.73 -6.08 L 71.95 -0.12 L 71.95 0 Z M 81.86 -1.85 L 89.03 -1.85 L 89.03 0 L 81.86 0 L 81.86 -1.85 Z M 80.19 -13.51 L 82.52 -13.51 L 82.52 0 L 80.19 0 L 80.19 -13.51 Z M 81.86 -7.87 L 88.09 -7.87 L 88.09 -6.05 L 81.86 -6.05 L 81.86 -7.87 Z M 81.86 -13.51 L 88.98 -13.51 L 88.98 -11.65 L 81.86 -11.65 L 81.86 -13.51 Z M 112.78 0 L 113.23 -2.47 L 116.79 -13.51 L 119.35 -13.51 L 114.51 0 L 112.78 0 Z M 107.39 -13.51 L 109.95 -13.51 L 113.47 -2.47 L 113.96 0 L 112.21 0 L 107.39 -13.51 Z M 127.5 -13.51 L 129.83 -13.51 L 129.83 0 L 127.5 0 L 127.5 -13.51 Z M 146.31 -3.48 L 146.31 -3.48 C 146.31 -3.76 146.27 -4.01 146.19 -4.22 C 146.11 -4.43 145.96 -4.64 145.75 -4.81 C 145.53 -4.99 145.25 -5.17 144.87 -5.34 C 144.48 -5.51 143.99 -5.69 143.41 -5.86 L 143.41 -5.86 C 142.77 -6.06 142.17 -6.28 141.64 -6.53 C 141.09 -6.77 140.62 -7.06 140.22 -7.38 C 139.82 -7.71 139.5 -8.08 139.28 -8.51 C 139.06 -8.92 138.95 -9.42 138.95 -9.97 L 138.95 -9.97 C 138.95 -10.52 139.07 -11.02 139.3 -11.48 C 139.53 -11.93 139.86 -12.32 140.29 -12.65 C 140.72 -12.98 141.23 -13.24 141.81 -13.42 C 142.4 -13.6 143.05 -13.69 143.76 -13.69 L 143.76 -13.69 C 144.76 -13.69 145.63 -13.51 146.36 -13.14 C 147.08 -12.77 147.64 -12.26 148.04 -11.64 C 148.43 -11.02 148.62 -10.33 148.62 -9.57 L 148.62 -9.57 L 146.31 -9.57 C 146.31 -10.02 146.22 -10.42 146.03 -10.76 C 145.84 -11.1 145.56 -11.37 145.18 -11.57 C 144.8 -11.76 144.32 -11.87 143.73 -11.87 L 143.73 -11.87 C 143.19 -11.87 142.72 -11.78 142.36 -11.62 C 142 -11.45 141.72 -11.23 141.54 -10.94 C 141.37 -10.65 141.27 -10.33 141.27 -9.97 L 141.27 -9.97 C 141.27 -9.72 141.33 -9.49 141.45 -9.29 C 141.57 -9.07 141.75 -8.89 141.99 -8.71 C 142.23 -8.54 142.54 -8.37 142.9 -8.21 C 143.26 -8.05 143.7 -7.9 144.19 -7.77 L 144.19 -7.77 C 144.94 -7.54 145.59 -7.3 146.15 -7.03 C 146.7 -6.76 147.17 -6.46 147.54 -6.11 C 147.91 -5.77 148.19 -5.39 148.37 -4.96 C 148.56 -4.53 148.65 -4.04 148.65 -3.5 L 148.65 -3.5 C 148.65 -2.93 148.54 -2.42 148.31 -1.97 C 148.08 -1.51 147.75 -1.12 147.33 -0.81 C 146.91 -0.48 146.4 -0.24 145.81 -0.07 C 145.22 0.1 144.56 0.19 143.84 0.19 L 143.84 0.19 C 143.19 0.19 142.55 0.1 141.92 -0.07 C 141.29 -0.25 140.72 -0.51 140.21 -0.87 C 139.7 -1.22 139.29 -1.67 138.98 -2.21 C 138.68 -2.74 138.53 -3.37 138.53 -4.08 L 138.53 -4.08 L 140.86 -4.08 C 140.86 -3.65 140.93 -3.27 141.09 -2.96 C 141.24 -2.65 141.45 -2.4 141.72 -2.21 C 141.99 -2.01 142.3 -1.86 142.68 -1.77 C 143.04 -1.68 143.42 -1.63 143.84 -1.63 L 143.84 -1.63 C 144.38 -1.63 144.84 -1.71 145.21 -1.86 C 145.57 -2.02 145.85 -2.24 146.03 -2.51 C 146.22 -2.79 146.31 -3.12 146.31 -3.48 Z M 164.77 -4.48 L 164.77 -13.51 L 167.09 -13.51 L 167.09 -4.48 C 167.09 -3.45 166.87 -2.6 166.42 -1.9 C 165.97 -1.21 165.37 -0.69 164.61 -0.34 C 163.84 0.01 162.99 0.19 162.05 0.19 L 162.05 0.19 C 161.08 0.19 160.21 0.01 159.45 -0.34 C 158.69 -0.69 158.09 -1.21 157.66 -1.9 C 157.23 -2.6 157 -3.45 157 -4.48 L 157 -4.48 L 157 -13.51 L 159.32 -13.51 L 159.32 -4.48 C 159.32 -3.83 159.43 -3.3 159.66 -2.89 C 159.88 -2.47 160.19 -2.15 160.6 -1.96 C 161.01 -1.76 161.49 -1.66 162.05 -1.66 L 162.05 -1.66 C 162.61 -1.66 163.09 -1.76 163.5 -1.96 C 163.9 -2.15 164.21 -2.47 164.43 -2.89 C 164.66 -3.3 164.77 -3.83 164.77 -4.48 L 164.77 -4.48 Z M 181.53 -13.51 L 181.36 -11.71 L 177.32 0 L 174.88 0 L 179.97 -13.51 L 181.53 -13.51 Z M 187.19 0 L 184.74 0 L 180.69 -11.71 L 180.52 -13.51 L 182.08 -13.51 L 187.19 0 Z M 177.19 -5.01 L 184.54 -5.01 L 184.54 -3.16 L 177.19 -3.16 L 177.19 -5.01 Z M 196.86 -1.85 L 203.64 -1.85 L 203.64 0 L 196.86 0 L 196.86 -1.85 Z M 195.18 -13.51 L 197.51 -13.51 L 197.51 0 L 195.18 0 L 195.18 -13.51 Z M 219.02 -3.48 L 219.02 -3.48 C 219.02 -3.76 218.98 -4.01 218.9 -4.22 C 218.82 -4.43 218.67 -4.64 218.46 -4.81 C 218.24 -4.99 217.96 -5.17 217.58 -5.34 C 217.2 -5.51 216.7 -5.69 216.12 -5.86 L 216.12 -5.86 C 215.48 -6.06 214.89 -6.28 214.35 -6.53 C 213.8 -6.77 213.33 -7.06 212.93 -7.38 C 212.53 -7.71 212.21 -8.08 211.99 -8.51 C 211.77 -8.92 211.66 -9.42 211.66 -9.97 L 211.66 -9.97 C 211.66 -10.52 211.78 -11.02 212.01 -11.48 C 212.24 -11.93 212.57 -12.32 213 -12.65 C 213.43 -12.98 213.94 -13.24 214.52 -13.42 C 215.11 -13.6 215.76 -13.69 216.47 -13.69 L 216.47 -13.69 C 217.47 -13.69 218.34 -13.51 219.07 -13.14 C 219.79 -12.77 220.35 -12.26 220.75 -11.64 C 221.14 -11.02 221.33 -10.33 221.33 -9.57 L 221.33 -9.57 L 219.02 -9.57 C 219.02 -10.02 218.93 -10.42 218.75 -10.76 C 218.55 -11.1 218.27 -11.37 217.89 -11.57 C 217.51 -11.76 217.03 -11.87 216.44 -11.87 L 216.44 -11.87 C 215.9 -11.87 215.43 -11.78 215.07 -11.62 C 214.71 -11.45 214.43 -11.23 214.25 -10.94 C 214.08 -10.65 213.99 -10.33 213.99 -9.97 L 213.99 -9.97 C 213.99 -9.72 214.04 -9.49 214.16 -9.29 C 214.28 -9.07 214.46 -8.89 214.7 -8.71 C 214.94 -8.54 215.25 -8.37 215.61 -8.21 C 215.97 -8.05 216.41 -7.9 216.9 -7.77 L 216.9 -7.77 C 217.65 -7.54 218.3 -7.3 218.86 -7.03 C 219.41 -6.76 219.88 -6.46 220.25 -6.11 C 220.62 -5.77 220.9 -5.39 221.08 -4.96 C 221.27 -4.53 221.36 -4.04 221.36 -3.5 L 221.36 -3.5 C 221.36 -2.93 221.25 -2.42 221.02 -1.97 C 220.79 -1.51 220.46 -1.12 220.04 -0.81 C 219.62 -0.48 219.11 -0.24 218.52 -0.07 C 217.93 0.1 217.27 0.19 216.55 0.19 L 216.55 0.19 C 215.9 0.19 215.26 0.1 214.64 -0.07 C 214 -0.25 213.43 -0.51 212.92 -0.87 C 212.41 -1.22 212 -1.67 211.69 -2.21 C 211.39 -2.74 211.24 -3.37 211.24 -4.08 L 211.24 -4.08 L 213.57 -4.08 C 213.57 -3.65 213.64 -3.27 213.8 -2.96 C 213.95 -2.65 214.16 -2.4 214.43 -2.21 C 214.7 -2.01 215.02 -1.86 215.39 -1.77 C 215.75 -1.68 216.13 -1.63 216.55 -1.63 L 216.55 -1.63 C 217.09 -1.63 217.55 -1.71 217.92 -1.86 C 218.28 -2.02 218.56 -2.24 218.75 -2.51 C 218.93 -2.79 219.02 -3.12 219.02 -3.48 Z M 247.2 0 L 242.05 -13.51 L 244.13 -13.51 L 248.03 -3.09 L 251.93 -13.51 L 254.01 -13.51 L 248.85 0 L 247.2 0 Z M 241.1 0 L 241.1 -13.51 L 243.08 -13.51 L 243.42 -4.49 L 243.42 0 L 241.1 0 Z M 252.63 -4.49 L 252.98 -13.51 L 254.96 -13.51 L 254.96 0 L 252.63 0 L 252.63 -4.49 Z M 265.87 -1.85 L 273.04 -1.85 L 273.04 0 L 265.87 0 L 265.87 -1.85 Z M 264.2 -13.51 L 266.52 -13.51 L 266.52 0 L 264.2 0 L 264.2 -13.51 Z M 265.87 -7.87 L 272.1 -7.87 L 272.1 -6.05 L 265.87 -6.05 L 265.87 -7.87 Z M 265.87 -13.51 L 272.99 -13.51 L 272.99 -11.65 L 265.87 -11.65 L 265.87 -13.51 Z M 283.08 -1.85 L 290.25 -1.85 L 290.25 0 L 283.08 0 L 283.08 -1.85 Z M 281.41 -13.51 L 283.74 -13.51 L 283.74 0 L 281.41 0 L 281.41 -13.51 Z M 283.08 -7.87 L 289.31 -7.87 L 289.31 -6.05 L 283.08 -6.05 L 283.08 -7.87 Z M 283.08 -13.51 L 290.2 -13.51 L 290.2 -11.65 L 283.08 -11.65 L 283.08 -13.51 Z M 301.87 -13.51 L 304.18 -13.51 L 304.18 0 L 301.87 0 L 301.87 -13.51 Z M 297.67 -13.51 L 308.42 -13.51 L 308.42 -11.65 L 297.67 -11.65 L 297.67 -13.51 Z M 328.04 -13.51 L 330.37 -13.51 L 330.37 0 L 328.04 0 L 328.04 -13.51 Z M 348.14 -13.51 L 350.46 -13.51 L 350.46 0 L 348.13 0 L 342.07 -9.68 L 342.07 0 L 339.74 0 L 339.74 -13.51 L 342.07 -13.51 L 348.14 -3.81 L 348.14 -13.51 Z M 368.1 -13.51 L 370.41 -13.51 L 370.41 0 L 368.09 0 L 362.03 -9.68 L 362.03 0 L 359.7 0 L 359.7 -13.51 L 362.03 -13.51 L 368.1 -3.81 L 368.1 -13.51 Z M 390.43 -7.13 L 390.43 -7.13 L 390.43 -6.38 C 390.43 -5.36 390.3 -4.44 390.03 -3.64 C 389.76 -2.83 389.39 -2.13 388.9 -1.57 C 388.41 -1 387.81 -0.57 387.13 -0.27 C 386.44 0.04 385.68 0.19 384.84 0.19 L 384.84 0.19 C 384.02 0.19 383.26 0.04 382.58 -0.27 C 381.89 -0.57 381.3 -1 380.8 -1.57 C 380.3 -2.13 379.91 -2.83 379.64 -3.64 C 379.36 -4.44 379.22 -5.36 379.22 -6.38 L 379.22 -6.38 L 379.22 -7.13 C 379.22 -8.15 379.36 -9.06 379.63 -9.87 C 379.9 -10.68 380.29 -11.36 380.79 -11.94 C 381.28 -12.51 381.87 -12.94 382.56 -13.25 C 383.24 -13.54 384 -13.69 384.83 -13.69 L 384.83 -13.69 C 385.66 -13.69 386.42 -13.54 387.11 -13.25 C 387.79 -12.94 388.39 -12.51 388.88 -11.94 C 389.37 -11.36 389.76 -10.68 390.03 -9.87 C 390.3 -9.06 390.43 -8.15 390.43 -7.13 Z M 388.1 -6.38 L 388.1 -6.38 L 388.1 -7.14 C 388.1 -7.9 388.03 -8.56 387.89 -9.15 C 387.74 -9.72 387.52 -10.21 387.25 -10.6 C 386.96 -10.99 386.62 -11.29 386.21 -11.49 C 385.8 -11.69 385.34 -11.79 384.83 -11.79 L 384.83 -11.79 C 384.31 -11.79 383.85 -11.69 383.45 -11.49 C 383.05 -11.29 382.71 -10.99 382.43 -10.6 C 382.14 -10.21 381.93 -9.72 381.78 -9.15 C 381.63 -8.56 381.56 -7.9 381.56 -7.14 L 381.56 -7.14 L 381.56 -6.38 C 381.56 -5.63 381.63 -4.96 381.78 -4.38 C 381.93 -3.79 382.15 -3.31 382.44 -2.91 C 382.73 -2.51 383.07 -2.21 383.47 -2.01 C 383.87 -1.81 384.33 -1.71 384.84 -1.71 L 384.84 -1.71 C 385.36 -1.71 385.83 -1.81 386.23 -2.01 C 386.62 -2.21 386.97 -2.51 387.25 -2.91 C 387.52 -3.31 387.74 -3.79 387.89 -4.38 C 388.03 -4.96 388.1 -5.63 388.1 -6.38 Z M 403.4 0 L 403.86 -2.47 L 407.41 -13.51 L 409.98 -13.51 L 405.14 0 L 403.4 0 Z M 398.01 -13.51 L 400.57 -13.51 L 404.1 -2.47 L 404.58 0 L 402.84 0 L 398.01 -13.51 Z M 423.4 -13.51 L 423.23 -11.71 L 419.2 0 L 416.76 0 L 421.84 -13.51 L 423.4 -13.51 Z M 429.06 0 L 426.61 0 L 422.56 -11.71 L 422.39 -13.51 L 423.95 -13.51 L 429.06 0 Z M 419.07 -5.01 L 426.41 -5.01 L 426.41 -3.16 L 419.07 -3.16 L 419.07 -5.01 Z M 440.3 -13.51 L 442.61 -13.51 L 442.61 0 L 440.3 0 L 440.3 -13.51 Z M 436.09 -13.51 L 446.85 -13.51 L 446.85 -11.65 L 436.09 -11.65 L 436.09 -13.51 Z M 455.26 -13.51 L 457.59 -13.51 L 457.59 0 L 455.26 0 L 455.26 -13.51 Z M 477.74 -7.13 L 477.74 -7.13 L 477.74 -6.38 C 477.74 -5.36 477.61 -4.44 477.34 -3.64 C 477.07 -2.83 476.7 -2.13 476.21 -1.57 C 475.71 -1 475.12 -0.57 474.43 -0.27 C 473.75 0.04 472.99 0.19 472.15 0.19 L 472.15 0.19 C 471.33 0.19 470.56 0.04 469.89 -0.27 C 469.2 -0.57 468.61 -1 468.11 -1.57 C 467.61 -2.13 467.22 -2.83 466.95 -3.64 C 466.67 -4.44 466.53 -5.36 466.53 -6.38 L 466.53 -6.38 L 466.53 -7.13 C 466.53 -8.15 466.67 -9.06 466.94 -9.87 C 467.21 -10.68 467.6 -11.36 468.1 -11.94 C 468.59 -12.51 469.18 -12.94 469.87 -13.25 C 470.55 -13.54 471.31 -13.69 472.13 -13.69 L 472.13 -13.69 C 472.97 -13.69 473.73 -13.54 474.41 -13.25 C 475.1 -12.94 475.7 -12.51 476.19 -11.94 C 476.68 -11.36 477.07 -10.68 477.34 -9.87 C 477.61 -9.06 477.74 -8.15 477.74 -7.13 Z M 475.41 -6.38 L 475.41 -6.38 L 475.41 -7.14 C 475.41 -7.9 475.33 -8.56 475.19 -9.15 C 475.05 -9.72 474.83 -10.21 474.55 -10.6 C 474.27 -10.99 473.92 -11.29 473.52 -11.49 C 473.11 -11.69 472.64 -11.79 472.13 -11.79 L 472.13 -11.79 C 471.62 -11.79 471.16 -11.69 470.76 -11.49 C 470.36 -11.29 470.02 -10.99 469.74 -10.6 C 469.45 -10.21 469.24 -9.72 469.09 -9.15 C 468.94 -8.56 468.87 -7.9 468.87 -7.14 L 468.87 -7.14 L 468.87 -6.38 C 468.87 -5.63 468.94 -4.96 469.09 -4.38 C 469.24 -3.79 469.46 -3.31 469.75 -2.91 C 470.04 -2.51 470.38 -2.21 470.78 -2.01 C 471.18 -1.81 471.64 -1.71 472.15 -1.71 L 472.15 -1.71 C 472.67 -1.71 473.13 -1.81 473.53 -2.01 C 473.93 -2.21 474.28 -2.51 474.55 -2.91 C 474.83 -3.31 475.05 -3.79 475.19 -4.38 C 475.33 -4.96 475.41 -5.63 475.41 -6.38 Z M 494.94 -13.51 L 497.25 -13.51 L 497.25 0 L 494.92 0 L 488.86 -9.68 L 488.86 0 L 486.53 0 L 486.53 -13.51 L 488.86 -13.51 L 494.94 -3.81 L 494.94 -13.51 Z" stroke-linecap="round" />
</g>
</g>
</g>
</svg>